<svg xmlns="http://www.w3.org/2000/svg" xmlns:xlink="http://www.w3.org/1999/xlink" viewBox="0 0 1200 380" width="1200" height="380" role="img" aria-label="Athanni wordmark">
  <title>athanni — horizontal lockup</title>
  <defs>
    <radialGradient id="lfield" cx="35%" cy="28%" r="90%">
      <stop offset="0%" stop-color="#fdf3c4"/>
      <stop offset="38%" stop-color="#efd27a"/>
      <stop offset="72%" stop-color="#d3a93a"/>
      <stop offset="100%" stop-color="#a37c1d"/>
    </radialGradient>
    <radialGradient id="lrim" cx="50%" cy="47%" r="53%">
      <stop offset="0%" stop-color="#e9c96a"/>
      <stop offset="80%" stop-color="#d9b04a"/>
      <stop offset="100%" stop-color="#8f6c16"/>
    </radialGradient>
    <linearGradient id="lline" x1="0" y1="0" x2="1" y2="0">
      <stop offset="0%" stop-color="#d3a93a"/>
      <stop offset="55%" stop-color="#8a6812"/>
      <stop offset="100%" stop-color="#d3a93a"/>
    </linearGradient>
    <g id="lfleuron">
      <path d="M 0 -12 C 4.2 -7.7 4.2 -3.4 0 0.8 C -4.2 -3.4 -4.2 -7.7 0 -12 Z"/>
      <path d="M -0.8 -2.6 C -6 -4.3 -9.3 -7.7 -10.2 -13 C -5.1 -11.1 -1.7 -7.7 -0.8 -2.6 Z"/>
      <path d="M 0.8 -2.6 C 6 -4.3 9.3 -7.7 10.2 -13 C 5.1 -11.1 1.7 -7.7 0.8 -2.6 Z"/>
      <circle cx="0" cy="-16" r="2"/>
      <circle cx="0" cy="4" r="1.6"/>
    </g>
  </defs>

  <!-- coin mark -->
  <g transform="translate(20 20) scale(0.664)">
    <circle cx="256" cy="256" r="250" fill="url(#lrim)"/>
    <circle cx="256" cy="256" r="250" fill="none" stroke="#7a5c12" stroke-width="3"/>
    <circle cx="256" cy="256" r="246" fill="none" stroke="#f9edb8" stroke-width="2" opacity="0.45"/>
    <circle cx="256" cy="256" r="236" fill="url(#lfield)"/>
    <circle cx="256" cy="256" r="243" fill="none" stroke="#8a6812" stroke-width="4.2" stroke-linecap="round" stroke-dasharray="0.1 25.37" opacity="0.9"/>
    <g fill="#7a5a10">
      <g transform="rotate(0 256 256)"><use xlink:href="#lfleuron" href="#lfleuron" x="256" y="106"/></g>
      <g transform="rotate(30 256 256)"><use xlink:href="#lfleuron" href="#lfleuron" x="256" y="106"/></g>
      <g transform="rotate(60 256 256)"><use xlink:href="#lfleuron" href="#lfleuron" x="256" y="106"/></g>
      <g transform="rotate(90 256 256)"><use xlink:href="#lfleuron" href="#lfleuron" x="256" y="106"/></g>
      <g transform="rotate(120 256 256)"><use xlink:href="#lfleuron" href="#lfleuron" x="256" y="106"/></g>
      <g transform="rotate(150 256 256)"><use xlink:href="#lfleuron" href="#lfleuron" x="256" y="106"/></g>
      <g transform="rotate(180 256 256)"><use xlink:href="#lfleuron" href="#lfleuron" x="256" y="106"/></g>
      <g transform="rotate(210 256 256)"><use xlink:href="#lfleuron" href="#lfleuron" x="256" y="106"/></g>
      <g transform="rotate(240 256 256)"><use xlink:href="#lfleuron" href="#lfleuron" x="256" y="106"/></g>
      <g transform="rotate(270 256 256)"><use xlink:href="#lfleuron" href="#lfleuron" x="256" y="106"/></g>
      <g transform="rotate(300 256 256)"><use xlink:href="#lfleuron" href="#lfleuron" x="256" y="106"/></g>
      <g transform="rotate(330 256 256)"><use xlink:href="#lfleuron" href="#lfleuron" x="256" y="106"/></g>
    </g>
    <text x="256" y="330" font-size="185" font-family="'Segoe UI','Nirmala UI','Segoe UI Symbol',Georgia,serif" font-weight="600" fill="#fff3c6" opacity="0.55" text-anchor="middle" transform="translate(0 -3)">₹</text>
    <text x="256" y="330" font-size="185" font-family="'Segoe UI','Nirmala UI','Segoe UI Symbol',Georgia,serif" font-weight="600" fill="#6e4f0c" text-anchor="middle">₹</text>
  </g>

  <!-- wordmark -->
  <text x="400" y="248" font-family="Georgia, 'Times New Roman', serif" font-weight="bold" font-size="160" letter-spacing="2" fill="#241c0b">athanni</text>
  <rect x="406" y="278" width="600" height="8" rx="4" fill="url(#lline)"/>
  <text x="406" y="330" font-family="Georgia, 'Times New Roman', serif" font-size="26" letter-spacing="8" fill="#8a6812">HALF A RUPEE, ALWAYS</text>
</svg>
